<svg xmlns="http://www.w3.org/2000/svg" version="1.1" xmlns:xlink="http://www.w3.org/1999/xlink" xmlns:svgjs="http://svgjs.com/svgjs" width="1500" height="1518"><svg xmlns="http://www.w3.org/2000/svg" version="1.1" xmlns:xlink="http://www.w3.org/1999/xlink" xmlns:svgjs="http://svgjs.dev/svgjs" width="1500" height="1518" viewBox="0 0 1500 1518"><g transform="matrix(1,0,0,1,1.325901639344238,0.6145748987853494)"><svg viewBox="0 0 244 247" data-background-color="#61777f" preserveAspectRatio="xMidYMid meet" height="1518" width="1500" xmlns="http://www.w3.org/2000/svg" xmlns:xlink="http://www.w3.org/1999/xlink"><g id="SvgjsG1003" transform="matrix(1,0,0,1,-0.21567999999999188,-0.09999999999999432)"><svg viewBox="0 0 244.43135999999998 247.2" height="247.2" width="244.43135999999998"><g><svg></svg></g><g><svg viewBox="0 0 244.43135999999998 247.2" height="247.2" width="244.43135999999998"><g transform="matrix(1,0,0,1,0,89.03614181172291)"><svg viewBox="0 0 244.43135999999998 69.12771637655416" height="69.12771637655416" width="244.43135999999998"><g><svg viewBox="0 0 244.43135999999998 69.12771637655416" height="69.12771637655416" width="244.43135999999998"><g><svg viewBox="0 0 244.43135999999998 69.12771637655416" height="69.12771637655416" width="244.43135999999998"><g><svg viewBox="0 0 244.43135999999998 69.12771637655416" height="69.12771637655416" width="244.43135999999998"><g id="SvgjsG1002"><svg viewBox="0 0 244.43135999999998 69.12771637655416" height="69.12771637655416" width="244.43135999999998" id="SvgjsSvg1001"><g><svg viewBox="0 0 244.43135999999998 69.12771637655416" height="69.12771637655416" width="244.43135999999998"><g transform="matrix(1,0,0,1,0,0)"><svg width="244.43135999999998" viewBox="4.85 -35.83 126.67000000000002 35.83" height="69.12771637655416" data-palette-color="#000000"><path d="M9.68-35.83L9.68-20.13 11.5-20.13Q12.45-20.13 13.01-20.36 13.58-20.6 14.08-21.18L14.08-21.18 26-34.68Q26.55-35.3 27.06-35.56 27.58-35.83 28.38-35.83L28.38-35.83 32.5-35.83 18.85-20.4Q18.32-19.83 17.86-19.43 17.4-19.03 16.88-18.78L16.88-18.78Q17.57-18.55 18.1-18.1 18.63-17.65 19.2-16.98L19.2-16.98 33.45 0 29.25 0Q28.78 0 28.45-0.08 28.13-0.15 27.89-0.28 27.65-0.4 27.45-0.6 27.25-0.8 27.05-1.03L27.05-1.03 14.68-15.25Q14.4-15.55 14.16-15.76 13.93-15.98 13.61-16.13 13.3-16.28 12.89-16.34 12.48-16.4 11.88-16.4L11.88-16.4 9.68-16.4 9.68 0 4.85 0 4.85-35.83 9.68-35.83ZM65.35-35.83L52.2-14.25 52.2 0 47.37 0 47.37-14.25 34.25-35.83 38.5-35.83Q39.15-35.83 39.52-35.5 39.9-35.18 40.17-34.7L40.17-34.7 48.37-20.78Q48.87-19.9 49.21-19.13 49.55-18.35 49.82-17.6L49.82-17.6Q50.1-18.38 50.42-19.15 50.75-19.93 51.25-20.78L51.25-20.78 59.42-34.7Q59.65-35.1 60.04-35.46 60.42-35.83 61.05-35.83L61.05-35.83 65.35-35.83ZM78.84-14.95L75.17-14.95 75.17 0 70.34 0 70.34-35.83 80.47-35.83Q83.87-35.83 86.34-35.14 88.82-34.45 90.43-33.15 92.05-31.85 92.82-30.01 93.59-28.18 93.59-25.9L93.59-25.9Q93.59-24 93-22.35 92.4-20.7 91.26-19.39 90.12-18.07 88.48-17.15 86.84-16.23 84.77-15.75L84.77-15.75Q85.67-15.23 86.37-14.23L86.37-14.23 96.82 0 92.52 0Q91.2 0 90.57-1.03L90.57-1.03 81.27-13.83Q80.84-14.43 80.34-14.69 79.84-14.95 78.84-14.95L78.84-14.95ZM75.17-32L75.17-18.48 80.25-18.48Q82.37-18.48 83.98-18.99 85.59-19.5 86.68-20.44 87.77-21.38 88.32-22.68 88.87-23.98 88.87-25.55L88.87-25.55Q88.87-28.75 86.76-30.38 84.65-32 80.47-32L80.47-32 75.17-32ZM117.19-35.83L131.52 0 127.77 0Q127.12 0 126.72-0.33 126.32-0.65 126.12-1.15L126.12-1.15 122.77-9.8 106.69-9.8 103.34-1.15Q103.17-0.7 102.74-0.35 102.32 0 101.69 0L101.69 0 97.94 0 112.27-35.83 117.19-35.83ZM113.67-27.85L108.04-13.3 121.42-13.3 115.79-27.88Q115.24-29.23 114.72-31.25L114.72-31.25Q114.44-30.23 114.18-29.36 113.92-28.5 113.67-27.85L113.67-27.85Z" opacity="1" transform="matrix(1,0,0,1,0,0)" fill="#000000" class="wordmark-text-0" data-fill-palette-color="primary" id="SvgjsPath1000"></path></svg></g></svg></g></svg></g></svg></g><g></g></svg></g></svg></g></svg></g><path d="M0 83.036L0 1 244.431 1 244.431 83.036 238.197 83.036 238.197 7.234 6.234 7.234 6.234 83.036 0 83.036M0 164.164L0 246.2 244.431 246.2 244.431 164.164 238.197 164.164 238.197 239.966 6.234 239.966 6.234 164.164 0 164.164" fill="#000000" stroke="transparent" data-fill-palette-color="tertiary"></path></svg></g><defs></defs></svg><rect width="244.43135999999998" height="247.2" fill="none" stroke="none" visibility="hidden"></rect></g></svg></g></svg><style>@media (prefers-color-scheme: light) { :root { filter: none; } }
</style></svg>